<svg xmlns="http://www.w3.org/2000/svg" xmlns:xlink="http://www.w3.org/1999/xlink" width="500" zoomAndPan="magnify" viewBox="0 0 375 374.999991" height="500" preserveAspectRatio="xMidYMid meet" version="1.0"><defs><g/><clipPath id="44211b8f95"><path d="M 101.402344 107.558594 L 273.902344 107.558594 L 273.902344 280.058594 L 101.402344 280.058594 Z M 101.402344 107.558594 " clip-rule="nonzero"/></clipPath><clipPath id="62b001ea0f"><path d="M 306 142 L 362 142 L 362 248 L 306 248 Z M 306 142 " clip-rule="nonzero"/></clipPath><clipPath id="bd5f093ef5"><path d="M 281.050781 152.984375 L 354.3125 136.9375 L 375.011719 231.445312 L 301.75 247.492188 Z M 281.050781 152.984375 " clip-rule="nonzero"/></clipPath><clipPath id="530a6175ea"><path d="M 281.050781 152.984375 L 354.3125 136.9375 L 379.828125 253.425781 L 306.5625 269.472656 Z M 281.050781 152.984375 " clip-rule="nonzero"/></clipPath><clipPath id="98908aba97"><path d="M 13 142 L 69 142 L 69 248 L 13 248 Z M 13 142 " clip-rule="nonzero"/></clipPath><clipPath id="2d61b09287"><path d="M 20.832031 136.910156 L 94.085938 153.015625 L 73.308594 247.511719 L 0.0585938 231.40625 Z M 20.832031 136.910156 " clip-rule="nonzero"/></clipPath><clipPath id="c2b42852b9"><path d="M 94.003906 153 L 20.753906 136.894531 L -4.855469 253.363281 L 68.398438 269.46875 Z M 94.003906 153 " clip-rule="nonzero"/></clipPath></defs><path fill="#303030" d="M 215.445312 188.222656 C 221.589844 188.222656 226.570312 193.203125 226.570312 199.347656 C 226.570312 205.492188 221.589844 210.472656 215.445312 210.472656 L 221.007812 210.472656 C 227.152344 210.472656 232.132812 215.457031 232.132812 221.601562 C 232.132812 223.246094 231.730469 224.78125 231.078125 226.179688 L 231.148438 226.179688 L 233.332031 228.359375 L 246.042969 222.007812 L 246.042969 193.378906 L 221.007812 180.863281 L 214.214844 184.261719 C 214.625 185.332031 214.996094 186.421875 215.277344 187.558594 Z M 215.445312 188.222656 " fill-opacity="1" fill-rule="nonzero"/><path fill="#303030" d="M 144.109375 226.179688 L 144.1875 226.179688 C 143.535156 224.78125 143.125 223.25 143.125 221.601562 C 143.125 215.457031 148.109375 210.472656 154.253906 210.472656 L 159.816406 210.472656 C 153.671875 210.472656 148.6875 205.492188 148.6875 199.347656 C 148.6875 193.203125 153.671875 188.222656 159.816406 188.222656 L 159.980469 187.558594 C 160.265625 186.421875 160.636719 185.332031 161.046875 184.261719 L 154.253906 180.863281 L 129.21875 193.378906 L 129.21875 222.007812 L 141.925781 228.363281 Z M 144.109375 226.179688 " fill-opacity="1" fill-rule="nonzero"/><path fill="#303030" d="M 212.664062 137.75 L 187.628906 125.230469 L 162.597656 137.75 L 162.597656 157.625 L 174.269531 169.296875 L 174.296875 169.296875 C 178.304688 167.167969 182.851562 165.96875 187.628906 165.96875 C 192.390625 165.96875 196.917969 167.175781 200.914062 169.296875 L 200.992188 169.296875 L 212.664062 157.625 Z M 212.664062 137.75 " fill-opacity="1" fill-rule="nonzero"/><g clip-path="url(#44211b8f95)"><path fill="#f4b324" d="M 273.855469 141.414062 C 273.855469 139.035156 273.042969 136.804688 271.613281 134.949219 L 271.902344 134.378906 C 273.179688 131.820312 273.855469 128.953125 273.855469 126.09375 C 273.855469 115.871094 265.542969 107.558594 255.324219 107.558594 C 252.460938 107.558594 249.597656 108.234375 247.035156 109.515625 L 246.464844 109.800781 C 244.613281 108.371094 242.378906 107.558594 240.003906 107.558594 C 234.128906 107.558594 229.351562 112.335938 229.351562 118.210938 C 229.351562 118.390625 229.394531 118.558594 229.40625 118.738281 C 229.226562 118.726562 229.054688 118.683594 228.878906 118.683594 C 223.410156 118.683594 218.945312 122.839844 218.347656 128.148438 L 187.628906 112.792969 L 156.914062 128.148438 C 156.316406 122.839844 151.851562 118.683594 146.382812 118.683594 C 146.203125 118.683594 146.03125 118.726562 145.855469 118.738281 C 145.867188 118.558594 145.90625 118.386719 145.90625 118.210938 C 145.90625 112.335938 141.132812 107.558594 135.257812 107.558594 C 132.882812 107.558594 130.648438 108.371094 128.796875 109.800781 L 128.226562 109.515625 C 125.664062 108.234375 122.800781 107.558594 119.9375 107.558594 C 109.71875 107.558594 101.402344 115.871094 101.402344 126.09375 C 101.402344 128.953125 102.078125 131.820312 103.359375 134.378906 L 103.644531 134.949219 C 102.214844 136.804688 101.402344 139.035156 101.402344 141.414062 C 101.402344 147.285156 106.179688 152.0625 112.054688 152.0625 C 112.234375 152.0625 112.40625 152.019531 112.582031 152.011719 C 112.570312 152.1875 112.53125 152.359375 112.53125 152.539062 C 112.53125 158.414062 117.304688 163.1875 123.179688 163.1875 C 125.554688 163.1875 127.789062 162.375 129.640625 160.945312 L 130.214844 161.234375 C 132.773438 162.511719 135.640625 163.1875 138.5 163.1875 C 139.589844 163.1875 140.644531 163.074219 141.683594 162.898438 L 149.558594 170.769531 L 118.09375 186.503906 L 118.09375 228.882812 L 131.011719 235.339844 L 104.523438 261.832031 C 102.511719 263.847656 101.402344 266.519531 101.402344 269.363281 C 101.402344 275.234375 106.179688 280.011719 112.054688 280.011719 C 114.898438 280.011719 117.574219 278.90625 119.582031 276.890625 L 147.078125 249.394531 C 148.945312 253.667969 152.898438 256.785156 157.644531 257.539062 C 161.542969 270.828125 173.679688 280.011719 187.628906 280.011719 C 201.582031 280.011719 213.71875 270.828125 217.617188 257.539062 C 222.359375 256.789062 226.316406 253.667969 228.183594 249.398438 L 255.679688 276.894531 C 257.6875 278.90625 260.363281 280.011719 263.207031 280.011719 C 269.082031 280.011719 273.855469 275.234375 273.855469 269.363281 C 273.855469 266.519531 272.75 263.84375 270.734375 261.832031 L 244.246094 235.339844 L 257.167969 228.882812 L 257.167969 186.503906 L 225.703125 170.769531 L 233.578125 162.898438 C 234.613281 163.074219 235.671875 163.1875 236.757812 163.1875 C 239.621094 163.1875 242.488281 162.511719 245.046875 161.234375 L 245.617188 160.945312 C 247.472656 162.375 249.703125 163.1875 252.082031 163.1875 C 257.953125 163.1875 262.730469 158.414062 262.730469 152.539062 C 262.730469 152.359375 262.6875 152.1875 262.679688 152.011719 C 262.855469 152.019531 263.027344 152.0625 263.207031 152.0625 C 269.082031 152.0625 273.855469 147.285156 273.855469 141.414062 Z M 268.292969 126.09375 C 268.292969 127.632812 268.007812 129.171875 267.46875 130.617188 L 250.796875 113.945312 C 252.242188 113.410156 253.78125 113.121094 255.324219 113.121094 C 262.476562 113.121094 268.292969 118.941406 268.292969 126.09375 Z M 218.226562 134.3125 L 218.226562 148.128906 L 200.433594 165.921875 C 196.503906 164.160156 192.160156 163.1875 187.628906 163.1875 C 183.097656 163.1875 178.757812 164.160156 174.828125 165.921875 L 157.035156 148.128906 L 157.035156 134.3125 L 187.628906 119.011719 Z M 221.007812 229.945312 L 154.253906 229.945312 C 149.652344 229.945312 145.90625 226.199219 145.90625 221.601562 C 145.90625 217 149.652344 213.253906 154.253906 213.253906 L 221.007812 213.253906 C 225.609375 213.253906 229.351562 217 229.351562 221.601562 C 229.351562 226.199219 225.609375 229.945312 221.007812 229.945312 Z M 215.445312 207.691406 L 159.816406 207.691406 C 155.214844 207.691406 151.46875 203.949219 151.46875 199.347656 C 151.46875 194.746094 155.214844 191.003906 159.816406 191.003906 L 215.445312 191.003906 C 220.046875 191.003906 223.789062 194.746094 223.789062 199.347656 C 223.789062 203.949219 220.046875 207.691406 215.445312 207.691406 Z M 211.691406 185.441406 L 163.566406 185.441406 C 167.292969 175.488281 176.792969 168.75 187.628906 168.75 C 198.464844 168.75 207.96875 175.488281 211.691406 185.441406 Z M 119.9375 113.121094 C 121.476562 113.121094 123.019531 113.410156 124.460938 113.945312 L 107.789062 130.617188 C 107.253906 129.171875 106.964844 127.632812 106.964844 126.09375 C 106.964844 118.941406 112.785156 113.121094 119.9375 113.121094 Z M 112.054688 146.5 C 109.246094 146.5 106.964844 144.21875 106.964844 141.414062 C 106.964844 140.054688 107.496094 138.777344 108.457031 137.816406 L 131.664062 114.609375 C 132.625 113.648438 133.898438 113.121094 135.257812 113.121094 C 138.0625 113.121094 140.34375 115.402344 140.34375 118.210938 C 140.34375 119.566406 139.816406 120.84375 138.855469 121.804688 L 115.648438 145.011719 C 114.6875 145.972656 113.410156 146.5 112.054688 146.5 Z M 123.179688 157.625 C 120.375 157.625 118.09375 155.34375 118.09375 152.539062 C 118.09375 151.179688 118.621094 149.90625 119.582031 148.941406 L 142.789062 125.734375 C 143.75 124.777344 145.027344 124.246094 146.382812 124.246094 C 149.191406 124.246094 151.46875 126.527344 151.46875 129.335938 C 151.46875 130.691406 150.941406 131.96875 149.980469 132.929688 L 126.773438 156.136719 C 125.8125 157.097656 124.539062 157.625 123.179688 157.625 Z M 133.976562 156.800781 L 150.648438 140.128906 C 151.183594 141.574219 151.46875 143.113281 151.46875 144.65625 C 151.46875 151.808594 145.652344 157.625 138.5 157.625 C 136.960938 157.625 135.417969 157.339844 133.976562 156.800781 Z M 154.6875 153.652344 L 169.808594 168.769531 C 167.011719 170.710938 164.546875 173.097656 162.503906 175.851562 L 147.496094 160.84375 C 150.511719 159.164062 153.007812 156.667969 154.6875 153.652344 Z M 123.65625 225.445312 L 123.65625 189.941406 L 153.703125 174.917969 L 159.539062 180.753906 C 158.78125 182.3125 158.144531 183.953125 157.644531 185.660156 C 151.007812 186.710938 145.90625 192.421875 145.90625 199.347656 C 145.90625 202.90625 147.289062 206.121094 149.496094 208.585938 C 144.175781 210.539062 140.34375 215.609375 140.34375 221.601562 C 140.34375 222.933594 140.59375 224.191406 140.941406 225.414062 L 135.160156 231.195312 Z M 115.648438 272.957031 C 114.6875 273.921875 113.410156 274.449219 112.054688 274.449219 C 109.246094 274.449219 106.964844 272.167969 106.964844 269.363281 C 106.964844 268.003906 107.496094 266.726562 108.457031 265.765625 L 143.6875 230.535156 C 145.234375 232.359375 147.210938 233.773438 149.5 234.613281 C 147.566406 236.773438 146.320312 239.523438 146.039062 242.570312 Z M 187.628906 274.449219 C 176.796875 274.449219 167.292969 267.710938 163.566406 257.761719 L 211.691406 257.761719 C 207.96875 267.710938 198.464844 274.449219 187.628906 274.449219 Z M 179.796875 252.195312 C 180.949219 248.96875 184.007812 246.632812 187.628906 246.632812 C 191.25 246.632812 194.3125 248.96875 195.460938 252.195312 Z M 215.445312 252.195312 L 201.257812 252.195312 C 199.964844 245.859375 194.347656 241.070312 187.628906 241.070312 C 180.914062 241.070312 175.296875 245.859375 174.003906 252.195312 L 159.816406 252.195312 C 155.214844 252.195312 151.46875 248.453125 151.46875 243.851562 C 151.46875 239.25 155.214844 235.507812 159.816406 235.507812 L 215.445312 235.507812 C 220.046875 235.507812 223.789062 239.25 223.789062 243.851562 C 223.789062 248.453125 220.046875 252.195312 215.445312 252.195312 Z M 268.292969 269.363281 C 268.292969 272.167969 266.011719 274.449219 263.207031 274.449219 C 261.847656 274.449219 260.570312 273.921875 259.609375 272.957031 L 229.222656 242.570312 C 228.9375 239.523438 227.699219 236.773438 225.761719 234.613281 C 228.046875 233.777344 230.027344 232.359375 231.570312 230.535156 L 266.804688 265.765625 C 267.765625 266.726562 268.292969 268.003906 268.292969 269.363281 Z M 251.605469 189.941406 L 251.605469 225.445312 L 240.101562 231.195312 L 234.316406 225.414062 C 234.667969 224.191406 234.914062 222.933594 234.914062 221.601562 C 234.914062 215.609375 231.085938 210.539062 225.765625 208.585938 C 227.96875 206.121094 229.351562 202.90625 229.351562 199.347656 C 229.351562 192.421875 224.25 186.710938 217.617188 185.660156 C 217.117188 183.953125 216.484375 182.3125 215.71875 180.753906 L 221.554688 174.917969 Z M 212.753906 175.851562 C 210.714844 173.097656 208.246094 170.710938 205.449219 168.769531 L 220.570312 153.652344 C 222.253906 156.667969 224.75 159.160156 227.765625 160.84375 Z M 223.789062 144.65625 C 223.789062 143.113281 224.074219 141.574219 224.613281 140.128906 L 241.285156 156.800781 C 239.839844 157.339844 238.300781 157.625 236.757812 157.625 C 229.609375 157.625 223.789062 151.808594 223.789062 144.65625 Z M 257.167969 152.539062 C 257.167969 155.34375 254.886719 157.625 252.082031 157.625 C 250.722656 157.625 249.445312 157.097656 248.484375 156.136719 L 225.277344 132.929688 C 224.316406 131.96875 223.789062 130.691406 223.789062 129.335938 C 223.789062 126.527344 226.070312 124.246094 228.878906 124.246094 C 230.234375 124.246094 231.511719 124.777344 232.472656 125.738281 L 255.679688 148.945312 C 256.640625 149.90625 257.167969 151.179688 257.167969 152.539062 Z M 236.40625 121.804688 C 235.445312 120.84375 234.914062 119.566406 234.914062 118.210938 C 234.914062 115.402344 237.195312 113.121094 240.003906 113.121094 C 241.359375 113.121094 242.636719 113.648438 243.597656 114.613281 L 266.804688 137.820312 C 267.765625 138.777344 268.292969 140.054688 268.292969 141.414062 C 268.292969 144.21875 266.011719 146.5 263.207031 146.5 C 261.847656 146.5 260.570312 145.972656 259.609375 145.007812 Z M 236.40625 121.804688 " fill-opacity="1" fill-rule="nonzero"/></g><g clip-path="url(#62b001ea0f)"><g clip-path="url(#bd5f093ef5)"><g clip-path="url(#530a6175ea)"><path fill="#f6e7d8" d="M 333.667969 222.949219 C 334.261719 223.417969 335.011719 223.023438 335.210938 222.503906 C 336.890625 221.65625 334.394531 214.824219 333.882812 213.195312 C 332.808594 210.707031 331.78125 207.855469 329.433594 206.296875 C 327.207031 204.945312 324.117188 205.910156 323.824219 208.695312 C 323.96875 214.308594 329.664062 219.476562 333.667969 222.949219 Z M 336.5 201.757812 C 337.203125 202.046875 337.828125 201.472656 337.882812 200.914062 C 339.273438 199.757812 335.1875 194.007812 334.332031 192.644531 C 332.617188 190.472656 330.859375 187.984375 328.199219 186.953125 C 325.851562 186.15625 322.882812 187.574219 323.136719 190.335938 C 324.308594 195.761719 331.828125 199.554688 336.5 201.757812 Z M 325.101562 176.183594 C 326.527344 176.867188 336.4375 181.511719 336.195312 178.40625 C 337.421875 176.394531 329.316406 169.492188 327.441406 168.414062 C 319.644531 163.351562 315.285156 172.25 325.101562 176.183594 Z M 334.703125 161.027344 C 335.15625 161.632812 335.972656 161.453125 336.300781 160.996094 C 338.195312 160.640625 337.621094 152.957031 337.519531 151.207031 C 337.242188 148.691406 336.894531 145.277344 334.835938 143.515625 C 332.863281 141.820312 329.890625 142.289062 329.019531 144.859375 C 327.976562 150.453125 331.75 156.492188 334.703125 161.027344 Z M 344.695312 169.085938 C 347.035156 169.992188 352.683594 160.972656 353.53125 158.84375 C 357.175781 150.648438 347.917969 147.628906 345.363281 157.953125 C 344.890625 159.316406 341.683594 170.152344 344.695312 169.085938 Z M 355.421875 167.664062 C 352.984375 168.394531 351.523438 171.109375 350.390625 173.183594 C 349.679688 174.5625 344.820312 184.363281 347.925781 184.109375 C 349.972656 185.382812 357.089844 177.398438 358.234375 175.5 C 360.804688 172.738281 360.203125 166.632812 355.421875 167.664062 Z M 358.15625 187.472656 C 355.492188 187.691406 353.351562 190.152344 351.695312 192.015625 C 350.734375 193.21875 344.046875 201.152344 347.058594 201.660156 C 348.84375 203.300781 357.261719 197.492188 358.914062 195.921875 C 362.183594 193.898438 363.296875 187.480469 358.15625 187.472656 Z M 354.847656 208.789062 C 352.160156 208.8125 349.921875 211.375 348.28125 213.203125 C 347.296875 214.394531 340.476562 222.472656 343.507812 222.992188 C 345.183594 224.679688 353.785156 218.785156 355.367188 217.253906 C 358.539062 215.242188 359.789062 209.160156 354.847656 208.789062 Z M 343.726562 191.613281 C 344.125 206.230469 341.03125 220.898438 334.976562 234.195312 C 328.890625 247.5625 319.71875 259.480469 308.089844 268.484375 C 307.160156 269.203125 306.226562 267.628906 307.148438 266.917969 C 313.503906 261.996094 319.144531 256.121094 323.875 249.625 C 332.296875 238.054688 337.957031 224.554688 340.476562 210.476562 C 343.003906 196.34375 342.277344 181.632812 337.921875 167.925781 C 337.566406 166.800781 339.320312 166.292969 339.675781 167.410156 C 342.160156 175.234375 343.5 183.410156 343.726562 191.613281 " fill-opacity="1" fill-rule="nonzero"/></g></g></g><g fill="#f6e7d8" fill-opacity="1"><g transform="translate(81.818675, 90.464827)"><g><path d="M -12.34375 -19.75 L -3.671875 -26.453125 C -1.609375 -28.046875 0.347656 -28.894531 2.203125 -29 C 4.054688 -29.113281 5.523438 -28.472656 6.609375 -27.078125 C 7.347656 -26.117188 7.71875 -25.0625 7.71875 -23.90625 C 7.71875 -22.75 7.335938 -21.648438 6.578125 -20.609375 C 7.910156 -21.273438 9.238281 -21.453125 10.5625 -21.140625 C 11.882812 -20.828125 13.007812 -20.078125 13.9375 -18.890625 C 15.132812 -17.335938 15.453125 -15.613281 14.890625 -13.71875 C 14.335938 -11.820312 12.976562 -10.035156 10.8125 -8.359375 L 1.828125 -1.421875 Z M -4.953125 -19.765625 L -2.03125 -16 L 1.75 -18.921875 C 2.425781 -19.441406 2.832031 -20.03125 2.96875 -20.6875 C 3.101562 -21.34375 2.941406 -21.96875 2.484375 -22.5625 C 2.035156 -23.132812 1.484375 -23.425781 0.828125 -23.4375 C 0.171875 -23.457031 -0.492188 -23.207031 -1.171875 -22.6875 Z M 0.546875 -12.65625 L 3.703125 -8.578125 L 7.484375 -11.5 C 8.347656 -12.164062 8.882812 -12.875 9.09375 -13.625 C 9.3125 -14.382812 9.171875 -15.085938 8.671875 -15.734375 C 8.203125 -16.347656 7.578125 -16.640625 6.796875 -16.609375 C 6.015625 -16.585938 5.191406 -16.242188 4.328125 -15.578125 Z M 0.546875 -12.65625 "/></g></g></g><g fill="#f6e7d8" fill-opacity="1"><g transform="translate(102.874145, 74.412312)"><g><path d="M 9.6875 -31.3125 L 15.953125 -19.421875 C 17.390625 -16.703125 17.6875 -14.101562 16.84375 -11.625 C 16.007812 -9.15625 14.15625 -7.164062 11.28125 -5.65625 C 8.394531 -4.125 5.675781 -3.703125 3.125 -4.390625 C 0.582031 -5.078125 -1.40625 -6.78125 -2.84375 -9.5 L -9.109375 -21.390625 L -3.90625 -24.140625 L 2.359375 -12.25 C 3.078125 -10.882812 4.046875 -10.003906 5.265625 -9.609375 C 6.492188 -9.222656 7.742188 -9.359375 9.015625 -10.015625 C 10.265625 -10.679688 11.050781 -11.613281 11.375 -12.8125 C 11.695312 -14.007812 11.492188 -15.300781 10.765625 -16.6875 L 4.5 -28.578125 Z M 9.6875 -31.3125 "/></g></g></g><g fill="#f6e7d8" fill-opacity="1"><g transform="translate(127.742256, 61.693916)"><g><path d="M 14.109375 -25.03125 L 6.921875 -7.1875 L 18.875 -11.09375 L 20.328125 -6.65625 L 0.875 -0.28125 L -0.296875 -3.875 L 6.921875 -21.75 L -4.46875 -18.015625 L -5.90625 -22.4375 L 12.9375 -28.609375 Z M 14.109375 -25.03125 "/></g></g></g><g fill="#f6e7d8" fill-opacity="1"><g transform="translate(151.841419, 54.051074)"><g><path d="M 17.921875 -22.453125 L 7.984375 -5.96875 L 20.40625 -7.921875 L 21.125 -3.3125 L 0.90625 -0.140625 L 0.3125 -3.875 L 10.3125 -20.359375 L -1.53125 -18.5 L -2.25 -23.09375 L 17.34375 -26.171875 Z M 17.921875 -22.453125 "/></g></g></g><g fill="#f6e7d8" fill-opacity="1"><g transform="translate(176.790104, 50.303715)"><g><path d="M 15.0625 0.15625 L 8.96875 0.09375 L 0.21875 -23.171875 L 6.5 -23.109375 L 12.25 -6 L 18.359375 -22.984375 L 24.421875 -22.921875 Z M 15.0625 0.15625 "/></g></g></g><g fill="#f6e7d8" fill-opacity="1"><g transform="translate(203.790069, 50.900838)"><g><path d="M 23.40625 -14.671875 L 11.34375 -16.828125 L 10.546875 -12.28125 L 21.421875 -10.34375 L 20.59375 -5.78125 L 9.71875 -7.71875 L 8.90625 -3.125 L 21.3125 -0.90625 L 20.5 3.65625 L 2.28125 0.40625 L 6.34375 -22.40625 L 24.21875 -19.21875 Z M 23.40625 -14.671875 "/></g></g></g><g fill="#f6e7d8" fill-opacity="1"><g transform="translate(228.569852, 55.491954)"><g><path d="M 15.359375 5.46875 L 14.28125 -1.828125 L 14.140625 -1.890625 L 9.9375 -3.390625 L 7.75 2.75 L 2.171875 0.78125 L 9.9375 -21.046875 L 19.71875 -17.578125 C 22.601562 -16.546875 24.597656 -15.085938 25.703125 -13.203125 C 26.816406 -11.328125 26.941406 -9.171875 26.078125 -6.734375 C 24.878906 -3.367188 22.726562 -1.5 19.625 -1.125 L 21.65625 7.703125 Z M 11.484375 -7.765625 L 15.6875 -6.265625 C 16.882812 -5.835938 17.925781 -5.804688 18.8125 -6.171875 C 19.695312 -6.535156 20.34375 -7.289062 20.75 -8.4375 C 21.144531 -9.550781 21.113281 -10.519531 20.65625 -11.34375 C 20.195312 -12.164062 19.367188 -12.789062 18.171875 -13.21875 L 13.96875 -14.71875 Z M 11.484375 -7.765625 "/></g></g></g><g fill="#f6e7d8" fill-opacity="1"><g transform="translate(253.773423, 64.827818)"><g><path d="M 21.15625 -15.09375 C 24.1875 -13.414062 26.4375 -11.191406 27.90625 -8.421875 L 23.734375 -5.453125 C 23.023438 -6.660156 22.171875 -7.796875 21.171875 -8.859375 C 20.171875 -9.929688 19.253906 -10.695312 18.421875 -11.15625 C 16.929688 -11.976562 15.914062 -11.898438 15.375 -10.921875 C 15.019531 -10.273438 15.101562 -9.554688 15.625 -8.765625 C 16.144531 -7.972656 16.851562 -7.144531 17.75 -6.28125 C 18.644531 -5.425781 19.507812 -4.507812 20.34375 -3.53125 C 21.175781 -2.550781 21.710938 -1.414062 21.953125 -0.125 C 22.203125 1.164062 21.953125 2.488281 21.203125 3.84375 C 20.128906 5.789062 18.53125 6.890625 16.40625 7.140625 C 14.28125 7.390625 12.035156 6.863281 9.671875 5.5625 C 7.992188 4.632812 6.492188 3.425781 5.171875 1.9375 C 3.847656 0.457031 2.859375 -1.125 2.203125 -2.8125 L 6.375 -5.671875 C 6.914062 -4.203125 7.722656 -2.800781 8.796875 -1.46875 C 9.867188 -0.132812 10.945312 0.828125 12.03125 1.421875 C 12.851562 1.878906 13.578125 2.085938 14.203125 2.046875 C 14.835938 2.003906 15.316406 1.691406 15.640625 1.109375 C 15.953125 0.546875 15.945312 -0.0664062 15.625 -0.734375 C 15.3125 -1.398438 14.804688 -2.039062 14.109375 -2.65625 C 13.421875 -3.28125 12.695312 -4.003906 11.9375 -4.828125 C 11.175781 -5.648438 10.503906 -6.460938 9.921875 -7.265625 C 9.335938 -8.066406 9 -9.015625 8.90625 -10.109375 C 8.8125 -11.210938 9.070312 -12.328125 9.6875 -13.453125 C 10.71875 -15.304688 12.273438 -16.378906 14.359375 -16.671875 C 16.453125 -16.960938 18.71875 -16.4375 21.15625 -15.09375 Z M 21.15625 -15.09375 "/></g></g></g><g fill="#f6e7d8" fill-opacity="1"><g transform="translate(274.943585, 76.745861)"><g><path d="M 27.546875 -2.03125 L 17.890625 -9.578125 L 15.046875 -5.9375 L 23.75 0.859375 L 20.90625 4.515625 L 12.203125 -2.28125 L 9.34375 1.390625 L 19.28125 9.15625 L 16.421875 12.8125 L 1.828125 1.421875 L 16.078125 -16.84375 L 30.390625 -5.671875 Z M 27.546875 -2.03125 "/></g></g></g><g fill="#f6e7d8" fill-opacity="1"><g transform="translate(96.781071, 327.891806)"><g><path d="M 19.203125 -6.546875 L 10.921875 -10.640625 L 8.890625 -6.53125 L 16.3125 -2.875 L 15.171875 -0.578125 L 7.75 -4.234375 L 5.6875 -0.046875 L 14.234375 4.171875 L 13.09375 6.46875 L 1.984375 0.984375 L 9.484375 -14.203125 L 20.328125 -8.84375 Z M 19.203125 -6.546875 "/></g></g></g><g fill="#f6e7d8" fill-opacity="1"><g transform="translate(119.71014, 338.500171)"><g><path d="M 12.84375 -13.640625 C 14.914062 -12.929688 16.601562 -11.75 17.90625 -10.09375 L 15.984375 -8.09375 C 14.671875 -9.644531 13.269531 -10.671875 11.78125 -11.171875 C 10.96875 -11.453125 10.28125 -11.523438 9.71875 -11.390625 C 9.15625 -11.253906 8.78125 -10.914062 8.59375 -10.375 C 8.414062 -9.84375 8.476562 -9.316406 8.78125 -8.796875 C 9.082031 -8.273438 9.523438 -7.816406 10.109375 -7.421875 C 10.691406 -7.035156 11.304688 -6.582031 11.953125 -6.0625 C 12.609375 -5.550781 13.207031 -5.035156 13.75 -4.515625 C 14.300781 -3.992188 14.679688 -3.347656 14.890625 -2.578125 C 15.097656 -1.804688 15.050781 -0.972656 14.75 -0.078125 C 14.269531 1.335938 13.320312 2.273438 11.90625 2.734375 C 10.5 3.191406 8.898438 3.117188 7.109375 2.515625 C 5.890625 2.097656 4.785156 1.46875 3.796875 0.625 C 2.804688 -0.21875 2.015625 -1.175781 1.421875 -2.25 L 3.390625 -4.203125 C 3.941406 -3.171875 4.632812 -2.285156 5.46875 -1.546875 C 6.300781 -0.816406 7.148438 -0.304688 8.015625 -0.015625 C 8.960938 0.304688 9.753906 0.382812 10.390625 0.21875 C 11.035156 0.0507812 11.460938 -0.332031 11.671875 -0.9375 C 11.859375 -1.488281 11.800781 -2.023438 11.5 -2.546875 C 11.207031 -3.066406 10.769531 -3.519531 10.1875 -3.90625 C 9.601562 -4.289062 8.976562 -4.738281 8.3125 -5.25 C 7.644531 -5.757812 7.039062 -6.265625 6.5 -6.765625 C 5.957031 -7.273438 5.578125 -7.914062 5.359375 -8.6875 C 5.148438 -9.457031 5.191406 -10.28125 5.484375 -11.15625 C 5.953125 -12.519531 6.851562 -13.421875 8.1875 -13.859375 C 9.53125 -14.304688 11.082031 -14.234375 12.84375 -13.640625 Z M 12.84375 -13.640625 "/></g></g></g><g fill="#f6e7d8" fill-opacity="1"><g transform="translate(143.006322, 345.739269)"><g><path d="M 16.359375 -11.359375 L 11.109375 -12.421875 L 8.25 1.671875 L 5.453125 1.109375 L 8.3125 -12.984375 L 3.078125 -14.046875 L 3.578125 -16.546875 L 16.859375 -13.859375 Z M 16.359375 -11.359375 "/></g></g></g><g fill="#f6e7d8" fill-opacity="1"><g transform="translate(165.773536, 349.66988)"><g><path d="M 1.78125 -2.34375 C 2.101562 -2.613281 2.484375 -2.726562 2.921875 -2.6875 C 3.359375 -2.644531 3.703125 -2.457031 3.953125 -2.125 C 4.210938 -1.800781 4.320312 -1.421875 4.28125 -0.984375 C 4.238281 -0.515625 4.054688 -0.144531 3.734375 0.125 C 3.421875 0.40625 3.046875 0.523438 2.609375 0.484375 C 2.171875 0.441406 1.820312 0.253906 1.5625 -0.078125 C 1.3125 -0.421875 1.207031 -0.828125 1.25 -1.296875 C 1.289062 -1.734375 1.46875 -2.082031 1.78125 -2.34375 Z M 1.78125 -2.34375 "/></g></g></g><g fill="#f6e7d8" fill-opacity="1"><g transform="translate(179.919866, 350.763352)"><g/></g></g><g fill="#f6e7d8" fill-opacity="1"><g transform="translate(195.304873, 350.841485)"><g><path d="M 5.578125 -17.546875 C 7.179688 -17.671875 8.503906 -17.390625 9.546875 -16.703125 C 10.597656 -16.023438 11.175781 -15.039062 11.28125 -13.75 C 11.40625 -12.269531 10.53125 -10.335938 8.65625 -7.953125 L 4.640625 -2.9375 L 12.890625 -3.609375 L 13.09375 -1.0625 L 1.09375 -0.09375 L 0.921875 -2.171875 L 6.59375 -9.34375 C 7.851562 -10.851562 8.441406 -12.101562 8.359375 -13.09375 C 8.304688 -13.769531 8.015625 -14.28125 7.484375 -14.625 C 6.953125 -14.976562 6.25 -15.117188 5.375 -15.046875 C 3.832031 -14.921875 2.351562 -14.085938 0.9375 -12.546875 L -0.375 -14.65625 C 1.457031 -16.40625 3.441406 -17.367188 5.578125 -17.546875 Z M 5.578125 -17.546875 "/></g></g></g><g fill="#f6e7d8" fill-opacity="1"><g transform="translate(218.804403, 348.401274)"><g><path d="M 4.59375 -18.375 C 6.84375 -18.863281 8.726562 -18.519531 10.25 -17.34375 C 11.78125 -16.164062 12.832031 -14.238281 13.40625 -11.5625 C 13.988281 -8.882812 13.828125 -6.691406 12.921875 -4.984375 C 12.023438 -3.273438 10.453125 -2.175781 8.203125 -1.6875 C 5.929688 -1.195312 4.03125 -1.546875 2.5 -2.734375 C 0.96875 -3.921875 -0.0820312 -5.851562 -0.65625 -8.53125 C -1.238281 -11.207031 -1.078125 -13.394531 -0.171875 -15.09375 C 0.734375 -16.789062 2.320312 -17.882812 4.59375 -18.375 Z M 5.078125 -16.1875 C 2.285156 -15.582031 1.332031 -13.226562 2.21875 -9.125 C 3.101562 -5.03125 4.941406 -3.285156 7.734375 -3.890625 C 10.503906 -4.492188 11.445312 -6.84375 10.5625 -10.9375 C 9.675781 -15.039062 7.847656 -16.789062 5.078125 -16.1875 Z M 5.078125 -16.1875 "/></g></g></g><g fill="#f6e7d8" fill-opacity="1"><g transform="translate(244.166306, 342.200063)"><g><path d="M 0.796875 -18.40625 C 2.316406 -18.945312 3.671875 -19.019531 4.859375 -18.625 C 6.046875 -18.238281 6.859375 -17.441406 7.296875 -16.234375 C 7.796875 -14.828125 7.453125 -12.734375 6.265625 -9.953125 L 3.71875 -4.046875 L 11.5 -6.84375 L 12.359375 -4.4375 L 1.03125 -0.375 L 0.328125 -2.328125 L 3.921875 -10.75 C 4.742188 -12.53125 4.988281 -13.890625 4.65625 -14.828125 C 4.425781 -15.460938 4.007812 -15.878906 3.40625 -16.078125 C 2.800781 -16.273438 2.082031 -16.222656 1.25 -15.921875 C -0.195312 -15.398438 -1.40625 -14.210938 -2.375 -12.359375 L -4.203125 -14.046875 C -2.878906 -16.234375 -1.210938 -17.6875 0.796875 -18.40625 Z M 0.796875 -18.40625 "/></g></g></g><g fill="#f6e7d8" fill-opacity="1"><g transform="translate(266.095895, 333.678326)"><g><path d="M 1.21875 -11.6875 L 2.03125 -12 C 3.382812 -12.539062 4.625 -12.644531 5.75 -12.3125 C 6.875 -11.988281 7.734375 -11.242188 8.328125 -10.078125 C 9.046875 -8.648438 9.128906 -7.238281 8.578125 -5.84375 C 8.023438 -4.457031 6.914062 -3.34375 5.25 -2.5 C 4.320312 -2.03125 3.328125 -1.710938 2.265625 -1.546875 C 1.203125 -1.390625 0.210938 -1.398438 -0.703125 -1.578125 L -0.6875 -4.1875 C 0.96875 -3.695312 2.523438 -3.820312 3.984375 -4.5625 C 4.972656 -5.0625 5.628906 -5.6875 5.953125 -6.4375 C 6.285156 -7.1875 6.253906 -7.957031 5.859375 -8.75 C 5.453125 -9.550781 4.863281 -10.023438 4.09375 -10.171875 C 3.320312 -10.316406 2.429688 -10.132812 1.421875 -9.625 L -0.6875 -8.5625 L -1.4375 -10.046875 L 0.359375 -16.28125 L -5.6875 -13.234375 L -6.828125 -15.484375 L 2.359375 -20.125 L 3.15625 -18.53125 Z M 1.21875 -11.6875 "/></g></g></g><g clip-path="url(#98908aba97)"><g clip-path="url(#2d61b09287)"><g clip-path="url(#c2b42852b9)"><path fill="#f6e7d8" d="M 41.328125 222.921875 C 40.734375 223.390625 39.984375 222.996094 39.789062 222.476562 C 38.109375 221.628906 40.609375 214.796875 41.125 213.167969 C 42.199219 210.683594 43.230469 207.832031 45.578125 206.273438 C 47.804688 204.925781 50.894531 205.894531 51.1875 208.675781 C 51.035156 214.289062 45.335938 219.457031 41.328125 222.921875 Z M 38.515625 201.730469 C 37.8125 202.019531 37.1875 201.445312 37.132812 200.886719 C 35.742188 199.730469 39.835938 193.984375 40.691406 192.617188 C 42.40625 190.449219 44.164062 187.960938 46.828125 186.933594 C 49.175781 186.136719 52.144531 187.554688 51.886719 190.320312 C 50.710938 195.742188 43.191406 199.53125 38.515625 201.730469 Z M 49.933594 176.164062 C 48.507812 176.847656 38.59375 181.484375 38.835938 178.378906 C 37.613281 176.363281 45.722656 169.46875 47.601562 168.394531 C 55.402344 163.335938 59.753906 172.242188 49.933594 176.164062 Z M 40.34375 161 C 39.890625 161.605469 39.074219 161.425781 38.746094 160.96875 C 36.851562 160.613281 37.433594 152.925781 37.535156 151.179688 C 37.816406 148.664062 38.164062 145.25 40.226562 143.488281 C 42.203125 141.796875 45.171875 142.265625 46.042969 144.835938 C 47.078125 150.433594 43.300781 156.46875 40.34375 161 Z M 30.347656 169.050781 C 28.003906 169.953125 22.367188 160.933594 21.519531 158.800781 C 17.878906 150.605469 27.140625 147.59375 29.6875 157.917969 C 30.15625 159.28125 33.359375 170.121094 30.347656 169.050781 Z M 19.621094 167.621094 C 22.058594 168.355469 23.515625 171.070312 24.648438 173.144531 C 25.359375 174.527344 30.207031 184.332031 27.101562 184.074219 C 25.054688 185.34375 17.945312 177.355469 16.804688 175.457031 C 14.230469 172.691406 14.839844 166.585938 19.621094 167.621094 Z M 16.871094 187.425781 C 19.53125 187.648438 21.671875 190.113281 23.328125 191.976562 C 24.285156 193.179688 30.96875 201.117188 27.957031 201.625 C 26.167969 203.265625 17.753906 197.449219 16.109375 195.878906 C 12.835938 193.847656 11.730469 187.429688 16.871094 187.425781 Z M 20.164062 208.746094 C 22.851562 208.769531 25.085938 211.335938 26.726562 213.164062 C 27.707031 214.359375 34.523438 222.441406 31.488281 222.960938 C 29.8125 224.644531 21.21875 218.746094 19.636719 217.210938 C 16.464844 215.195312 15.222656 209.117188 20.164062 208.746094 Z M 31.296875 191.578125 C 30.886719 206.199219 33.96875 220.867188 40.011719 234.167969 C 46.089844 247.539062 55.25 259.464844 66.871094 268.476562 C 67.800781 269.199219 68.734375 267.625 67.816406 266.914062 C 61.464844 261.984375 55.824219 256.109375 51.101562 249.605469 C 42.691406 238.03125 37.039062 224.527344 34.53125 210.449219 C 32.015625 196.3125 32.753906 181.597656 37.117188 167.898438 C 37.476562 166.773438 35.722656 166.261719 35.363281 167.382812 C 32.875 175.199219 31.53125 183.375 31.296875 191.578125 " fill-opacity="1" fill-rule="nonzero"/></g></g></g></svg>