<svg xmlns="http://www.w3.org/2000/svg" xmlns:xlink="http://www.w3.org/1999/xlink" width="500" zoomAndPan="magnify" viewBox="0 0 375 374.999991" height="500" preserveAspectRatio="xMidYMid meet" version="1.0"><defs><g/><clipPath id="2e2cca09c7"><path d="M 126.832031 131.171875 L 248.332031 131.171875 L 248.332031 252.671875 L 126.832031 252.671875 Z M 126.832031 131.171875 " clip-rule="nonzero"/></clipPath><clipPath id="f5215428ad"><path d="M 271 155 L 311 155 L 311 230 L 271 230 Z M 271 155 " clip-rule="nonzero"/></clipPath><clipPath id="b5da0120d7"><path d="M 253.421875 163.179688 L 304.703125 151.945312 L 319.308594 218.613281 L 268.023438 229.847656 Z M 253.421875 163.179688 " clip-rule="nonzero"/></clipPath><clipPath id="76b802b604"><path d="M 253.421875 163.179688 L 304.703125 151.945312 L 322.675781 234 L 271.390625 245.234375 Z M 253.421875 163.179688 " clip-rule="nonzero"/></clipPath><clipPath id="6c943be56d"><path d="M 64 155 L 104 155 L 104 230 L 64 230 Z M 64 155 " clip-rule="nonzero"/></clipPath><clipPath id="6a825be888"><path d="M 70.058594 151.851562 L 121.335938 163.125 L 106.679688 229.785156 L 55.402344 218.511719 Z M 70.058594 151.851562 " clip-rule="nonzero"/></clipPath><clipPath id="4d6343935b"><path d="M 121.621094 163.191406 L 70.34375 151.914062 L 52.308594 233.957031 L 103.582031 245.230469 Z M 121.621094 163.191406 " clip-rule="nonzero"/></clipPath></defs><path fill="#303030" d="M 207.1875 188.007812 C 211.515625 188.007812 215.027344 191.515625 215.027344 195.847656 C 215.027344 200.175781 211.515625 203.683594 207.1875 203.683594 L 211.105469 203.683594 C 215.4375 203.683594 218.945312 207.195312 218.945312 211.523438 C 218.945312 212.683594 218.664062 213.765625 218.203125 214.75 L 218.253906 214.75 L 219.789062 216.289062 L 228.746094 211.8125 L 228.746094 191.640625 L 211.105469 182.820312 L 206.320312 185.214844 C 206.609375 185.96875 206.871094 186.738281 207.070312 187.539062 Z M 207.1875 188.007812 " fill-opacity="1" fill-rule="nonzero"/><path fill="#303030" d="M 156.925781 214.75 L 156.980469 214.75 C 156.519531 213.765625 156.230469 212.6875 156.230469 211.523438 C 156.230469 207.195312 159.742188 203.683594 164.070312 203.683594 L 167.988281 203.683594 C 163.660156 203.683594 160.152344 200.175781 160.152344 195.847656 C 160.152344 191.515625 163.660156 188.007812 167.988281 188.007812 L 168.109375 187.539062 C 168.308594 186.738281 168.570312 185.96875 168.859375 185.214844 L 164.070312 182.820312 L 146.429688 191.640625 L 146.429688 211.8125 L 155.386719 216.289062 Z M 156.925781 214.75 " fill-opacity="1" fill-rule="nonzero"/><path fill="#303030" d="M 205.226562 152.441406 L 187.589844 143.625 L 169.949219 152.441406 L 169.949219 166.449219 L 178.171875 174.671875 L 178.191406 174.671875 C 181.015625 173.171875 184.222656 172.328125 187.589844 172.328125 C 190.945312 172.328125 194.132812 173.179688 196.949219 174.671875 L 197.003906 174.671875 L 205.226562 166.449219 Z M 205.226562 152.441406 " fill-opacity="1" fill-rule="nonzero"/><g clip-path="url(#2e2cca09c7)"><path fill="#f4b324" d="M 248.34375 155.023438 C 248.34375 153.351562 247.773438 151.777344 246.765625 150.472656 L 246.96875 150.066406 C 247.867188 148.265625 248.34375 146.246094 248.34375 144.230469 C 248.34375 137.027344 242.488281 131.171875 235.285156 131.171875 C 233.269531 131.171875 231.25 131.644531 229.445312 132.546875 L 229.042969 132.75 C 227.738281 131.742188 226.164062 131.171875 224.492188 131.171875 C 220.351562 131.171875 216.988281 134.535156 216.988281 138.675781 C 216.988281 138.800781 217.015625 138.921875 217.023438 139.046875 C 216.898438 139.039062 216.777344 139.007812 216.652344 139.007812 C 212.796875 139.007812 209.652344 141.9375 209.230469 145.679688 L 187.589844 134.859375 L 165.945312 145.679688 C 165.523438 141.9375 162.378906 139.007812 158.527344 139.007812 C 158.398438 139.007812 158.277344 139.039062 158.152344 139.046875 C 158.160156 138.921875 158.191406 138.800781 158.191406 138.675781 C 158.191406 134.535156 154.824219 131.171875 150.6875 131.171875 C 149.011719 131.171875 147.4375 131.742188 146.132812 132.75 L 145.730469 132.546875 C 143.925781 131.644531 141.90625 131.171875 139.890625 131.171875 C 132.691406 131.171875 126.832031 137.027344 126.832031 144.230469 C 126.832031 146.246094 127.308594 148.265625 128.210938 150.070312 L 128.414062 150.472656 C 127.40625 151.777344 126.832031 153.351562 126.832031 155.023438 C 126.832031 159.164062 130.199219 162.527344 134.335938 162.527344 C 134.464844 162.527344 134.585938 162.5 134.710938 162.492188 C 134.703125 162.617188 134.671875 162.738281 134.671875 162.863281 C 134.671875 167.003906 138.039062 170.367188 142.175781 170.367188 C 143.851562 170.367188 145.425781 169.796875 146.730469 168.789062 L 147.132812 168.988281 C 148.9375 169.890625 150.957031 170.367188 152.972656 170.367188 C 153.738281 170.367188 154.484375 170.285156 155.214844 170.160156 L 160.761719 175.710938 L 138.59375 186.796875 L 138.59375 216.65625 L 147.695312 221.207031 L 129.03125 239.871094 C 127.613281 241.292969 126.832031 243.175781 126.832031 245.175781 C 126.832031 249.316406 130.199219 252.683594 134.335938 252.683594 C 136.339844 252.683594 138.226562 251.902344 139.644531 250.484375 L 159.015625 231.109375 C 160.332031 234.121094 163.117188 236.316406 166.460938 236.847656 C 169.207031 246.210938 177.757812 252.683594 187.589844 252.683594 C 197.417969 252.683594 205.96875 246.210938 208.71875 236.847656 C 212.058594 236.320312 214.847656 234.121094 216.164062 231.113281 L 235.535156 250.484375 C 236.953125 251.902344 238.835938 252.683594 240.839844 252.683594 C 244.980469 252.683594 248.34375 249.316406 248.34375 245.175781 C 248.34375 243.175781 247.566406 241.289062 246.144531 239.871094 L 227.480469 221.207031 L 236.585938 216.65625 L 236.585938 186.796875 L 214.414062 175.710938 L 219.964844 170.160156 C 220.695312 170.285156 221.441406 170.367188 222.207031 170.367188 C 224.222656 170.367188 226.242188 169.890625 228.046875 168.988281 L 228.449219 168.789062 C 229.753906 169.796875 231.328125 170.367188 233 170.367188 C 237.140625 170.367188 240.503906 167.003906 240.503906 162.863281 C 240.503906 162.734375 240.476562 162.617188 240.46875 162.492188 C 240.59375 162.5 240.714844 162.527344 240.839844 162.527344 C 244.980469 162.527344 248.34375 159.164062 248.34375 155.023438 Z M 244.425781 144.230469 C 244.425781 145.316406 244.222656 146.398438 243.84375 147.417969 L 232.097656 135.671875 C 233.113281 135.292969 234.199219 135.089844 235.285156 135.089844 C 240.324219 135.089844 244.425781 139.191406 244.425781 144.230469 Z M 209.148438 150.019531 L 209.148438 159.757812 L 196.609375 172.292969 C 193.839844 171.050781 190.78125 170.367188 187.589844 170.367188 C 184.394531 170.367188 181.335938 171.050781 178.566406 172.292969 L 166.03125 159.757812 L 166.03125 150.019531 L 187.589844 139.242188 Z M 211.105469 217.402344 L 164.070312 217.402344 C 160.828125 217.402344 158.191406 214.765625 158.191406 211.523438 C 158.191406 208.28125 160.828125 205.644531 164.070312 205.644531 L 211.105469 205.644531 C 214.347656 205.644531 216.988281 208.28125 216.988281 211.523438 C 216.988281 214.765625 214.347656 217.402344 211.105469 217.402344 Z M 207.1875 201.726562 L 167.988281 201.726562 C 164.75 201.726562 162.109375 199.085938 162.109375 195.847656 C 162.109375 192.605469 164.75 189.964844 167.988281 189.964844 L 207.1875 189.964844 C 210.429688 189.964844 213.066406 192.605469 213.066406 195.847656 C 213.066406 199.085938 210.429688 201.726562 207.1875 201.726562 Z M 204.542969 186.046875 L 170.632812 186.046875 C 173.257812 179.035156 179.953125 174.289062 187.589844 174.289062 C 195.222656 174.289062 201.917969 179.035156 204.542969 186.046875 Z M 139.890625 135.089844 C 140.976562 135.089844 142.0625 135.292969 143.082031 135.671875 L 131.332031 147.417969 C 130.953125 146.398438 130.753906 145.316406 130.753906 144.230469 C 130.753906 139.191406 134.851562 135.089844 139.890625 135.089844 Z M 134.335938 158.609375 C 132.359375 158.609375 130.753906 157 130.753906 155.023438 C 130.753906 154.066406 131.125 153.167969 131.804688 152.488281 L 148.152344 136.136719 C 148.832031 135.460938 149.730469 135.089844 150.6875 135.089844 C 152.664062 135.089844 154.269531 136.695312 154.269531 138.675781 C 154.269531 139.632812 153.898438 140.53125 153.21875 141.207031 L 136.871094 157.558594 C 136.191406 158.234375 135.292969 158.609375 134.335938 158.609375 Z M 142.175781 166.449219 C 140.199219 166.449219 138.59375 164.839844 138.59375 162.863281 C 138.59375 161.90625 138.964844 161.007812 139.644531 160.328125 L 155.992188 143.976562 C 156.667969 143.300781 157.570312 142.929688 158.527344 142.929688 C 160.503906 142.929688 162.109375 144.535156 162.109375 146.515625 C 162.109375 147.46875 161.738281 148.371094 161.058594 149.046875 L 144.707031 165.398438 C 144.03125 166.074219 143.132812 166.449219 142.175781 166.449219 Z M 149.78125 165.867188 L 161.53125 154.121094 C 161.910156 155.136719 162.109375 156.222656 162.109375 157.308594 C 162.109375 162.347656 158.011719 166.449219 152.972656 166.449219 C 151.886719 166.449219 150.800781 166.246094 149.78125 165.867188 Z M 164.378906 163.648438 L 175.03125 174.300781 C 173.0625 175.667969 171.324219 177.347656 169.886719 179.289062 L 159.308594 168.714844 C 161.433594 167.53125 163.195312 165.773438 164.378906 163.648438 Z M 142.511719 214.234375 L 142.511719 189.21875 L 163.683594 178.632812 L 167.796875 182.742188 C 167.261719 183.84375 166.8125 184.996094 166.460938 186.203125 C 161.785156 186.941406 158.191406 190.964844 158.191406 195.847656 C 158.191406 198.351562 159.164062 200.617188 160.71875 202.355469 C 156.96875 203.730469 154.269531 207.304688 154.269531 211.523438 C 154.269531 212.464844 154.445312 213.351562 154.691406 214.210938 L 150.617188 218.285156 Z M 136.871094 247.710938 C 136.191406 248.390625 135.292969 248.761719 134.335938 248.761719 C 132.359375 248.761719 130.753906 247.15625 130.753906 245.175781 C 130.753906 244.222656 131.125 243.320312 131.804688 242.644531 L 156.625 217.820312 C 157.714844 219.105469 159.109375 220.101562 160.722656 220.695312 C 159.359375 222.214844 158.484375 224.152344 158.28125 226.300781 Z M 187.589844 248.761719 C 179.957031 248.761719 173.257812 244.015625 170.632812 237.003906 L 204.542969 237.003906 C 201.917969 244.015625 195.222656 248.761719 187.589844 248.761719 Z M 182.070312 233.082031 C 182.882812 230.808594 185.035156 229.164062 187.589844 229.164062 C 190.140625 229.164062 192.296875 230.808594 193.109375 233.082031 Z M 207.1875 233.082031 L 197.191406 233.082031 C 196.277344 228.617188 192.320312 225.242188 187.589844 225.242188 C 182.855469 225.242188 178.898438 228.617188 177.988281 233.082031 L 167.988281 233.082031 C 164.75 233.082031 162.109375 230.445312 162.109375 227.203125 C 162.109375 223.960938 164.75 221.324219 167.988281 221.324219 L 207.1875 221.324219 C 210.429688 221.324219 213.066406 223.960938 213.066406 227.203125 C 213.066406 230.445312 210.429688 233.082031 207.1875 233.082031 Z M 244.425781 245.175781 C 244.425781 247.15625 242.816406 248.761719 240.839844 248.761719 C 239.882812 248.761719 238.984375 248.390625 238.304688 247.710938 L 216.894531 226.300781 C 216.695312 224.152344 215.820312 222.214844 214.457031 220.695312 C 216.066406 220.105469 217.460938 219.105469 218.550781 217.820312 L 243.375 242.644531 C 244.050781 243.320312 244.425781 244.222656 244.425781 245.175781 Z M 232.664062 189.21875 L 232.664062 214.234375 L 224.558594 218.285156 L 220.484375 214.210938 C 220.730469 213.351562 220.90625 212.464844 220.90625 211.523438 C 220.90625 207.304688 218.207031 203.730469 214.457031 202.355469 C 216.011719 200.617188 216.988281 198.351562 216.988281 195.847656 C 216.988281 190.964844 213.390625 186.941406 208.71875 186.203125 C 208.367188 184.996094 207.917969 183.84375 207.382812 182.742188 L 211.492188 178.632812 Z M 205.292969 179.289062 C 203.855469 177.347656 202.117188 175.667969 200.144531 174.300781 L 210.800781 163.648438 C 211.984375 165.773438 213.742188 167.53125 215.867188 168.714844 Z M 213.066406 157.308594 C 213.066406 156.222656 213.269531 155.136719 213.648438 154.121094 L 225.394531 165.867188 C 224.378906 166.246094 223.292969 166.449219 222.207031 166.449219 C 217.167969 166.449219 213.066406 162.347656 213.066406 157.308594 Z M 236.585938 162.863281 C 236.585938 164.839844 234.976562 166.449219 233 166.449219 C 232.042969 166.449219 231.144531 166.074219 230.464844 165.398438 L 214.117188 149.046875 C 213.4375 148.371094 213.066406 147.46875 213.066406 146.515625 C 213.066406 144.535156 214.675781 142.929688 216.652344 142.929688 C 217.609375 142.929688 218.507812 143.300781 219.1875 143.980469 L 235.535156 160.332031 C 236.214844 161.007812 236.585938 161.90625 236.585938 162.863281 Z M 221.957031 141.207031 C 221.277344 140.53125 220.90625 139.632812 220.90625 138.675781 C 220.90625 136.695312 222.511719 135.089844 224.492188 135.089844 C 225.449219 135.089844 226.347656 135.460938 227.023438 136.140625 L 243.375 152.492188 C 244.050781 153.167969 244.425781 154.066406 244.425781 155.023438 C 244.425781 157 242.816406 158.609375 240.839844 158.609375 C 239.882812 158.609375 238.984375 158.234375 238.304688 157.558594 Z M 221.957031 141.207031 " fill-opacity="1" fill-rule="nonzero"/></g><g clip-path="url(#f5215428ad)"><g clip-path="url(#b5da0120d7)"><g clip-path="url(#76b802b604)"><path fill="#f6e7d8" d="M 290.5 212.476562 C 290.917969 212.804688 291.445312 212.53125 291.585938 212.164062 C 292.769531 211.566406 291.007812 206.753906 290.648438 205.605469 C 289.894531 203.851562 289.167969 201.84375 287.515625 200.742188 C 285.945312 199.792969 283.769531 200.472656 283.5625 202.433594 C 283.664062 206.386719 287.679688 210.03125 290.5 212.476562 Z M 292.492188 197.546875 C 292.988281 197.75 293.429688 197.34375 293.46875 196.953125 C 294.449219 196.136719 291.566406 192.085938 290.964844 191.125 C 289.757812 189.59375 288.519531 187.839844 286.644531 187.113281 C 284.992188 186.550781 282.898438 187.550781 283.078125 189.496094 C 283.902344 193.320312 289.199219 195.992188 292.492188 197.546875 Z M 284.460938 179.523438 C 285.464844 180.007812 292.449219 183.28125 292.28125 181.089844 C 293.144531 179.671875 287.429688 174.808594 286.109375 174.050781 C 280.617188 170.484375 277.542969 176.753906 284.460938 179.523438 Z M 291.226562 168.84375 C 291.546875 169.273438 292.121094 169.144531 292.351562 168.824219 C 293.6875 168.574219 293.28125 163.15625 293.210938 161.925781 C 293.015625 160.152344 292.769531 157.746094 291.320312 156.507812 C 289.929688 155.3125 287.835938 155.640625 287.222656 157.453125 C 286.488281 161.394531 289.144531 165.652344 291.226562 168.84375 Z M 298.265625 174.523438 C 299.917969 175.160156 303.894531 168.808594 304.492188 167.308594 C 307.0625 161.535156 300.539062 159.40625 298.738281 166.679688 C 298.40625 167.640625 296.144531 175.273438 298.265625 174.523438 Z M 305.824219 173.519531 C 304.109375 174.039062 303.082031 175.949219 302.28125 177.410156 C 301.78125 178.382812 298.355469 185.289062 300.542969 185.109375 C 301.988281 186.007812 307 180.382812 307.808594 179.042969 C 309.621094 177.097656 309.195312 172.796875 305.824219 173.519531 Z M 307.75 187.480469 C 305.875 187.632812 304.367188 189.367188 303.199219 190.679688 C 302.523438 191.527344 297.808594 197.117188 299.933594 197.476562 C 301.191406 198.632812 307.125 194.539062 308.285156 193.433594 C 310.589844 192.007812 311.375 187.484375 307.75 187.480469 Z M 305.421875 202.5 C 303.527344 202.515625 301.949219 204.320312 300.792969 205.609375 C 300.101562 206.449219 295.292969 212.140625 297.433594 212.507812 C 298.613281 213.695312 304.671875 209.542969 305.789062 208.464844 C 308.023438 207.046875 308.902344 202.761719 305.421875 202.5 Z M 297.585938 190.398438 C 297.867188 200.699219 295.6875 211.03125 291.417969 220.402344 C 287.128906 229.820312 280.667969 238.21875 272.476562 244.5625 C 271.820312 245.066406 271.164062 243.960938 271.8125 243.457031 C 276.289062 239.988281 280.265625 235.851562 283.597656 231.273438 C 289.53125 223.121094 293.519531 213.609375 295.296875 203.691406 C 297.078125 193.730469 296.5625 183.363281 293.496094 173.707031 C 293.242188 172.914062 294.480469 172.554688 294.730469 173.34375 C 296.484375 178.855469 297.425781 184.617188 297.585938 190.398438 " fill-opacity="1" fill-rule="nonzero"/></g></g></g><g fill="#f6e7d8" fill-opacity="1"><g transform="translate(113.032623, 119.125052)"><g><path d="M -8.6875 -13.921875 L -2.578125 -18.640625 C -1.128906 -19.765625 0.242188 -20.363281 1.546875 -20.4375 C 2.859375 -20.507812 3.890625 -20.054688 4.640625 -19.078125 C 5.171875 -18.398438 5.4375 -17.65625 5.4375 -16.84375 C 5.4375 -16.03125 5.164062 -15.253906 4.625 -14.515625 C 5.570312 -14.984375 6.507812 -15.109375 7.4375 -14.890625 C 8.375 -14.671875 9.164062 -14.144531 9.8125 -13.3125 C 10.65625 -12.21875 10.878906 -11.003906 10.484375 -9.671875 C 10.097656 -8.335938 9.144531 -7.078125 7.625 -5.890625 L 1.296875 -1 Z M -3.484375 -13.9375 L -1.4375 -11.28125 L 1.21875 -13.328125 C 1.695312 -13.703125 1.984375 -14.117188 2.078125 -14.578125 C 2.179688 -15.035156 2.070312 -15.472656 1.75 -15.890625 C 1.4375 -16.296875 1.046875 -16.503906 0.578125 -16.515625 C 0.117188 -16.535156 -0.347656 -16.359375 -0.828125 -15.984375 Z M 0.390625 -8.921875 L 2.609375 -6.0625 L 5.265625 -8.109375 C 5.878906 -8.585938 6.265625 -9.085938 6.421875 -9.609375 C 6.578125 -10.140625 6.476562 -10.632812 6.125 -11.09375 C 5.789062 -11.53125 5.347656 -11.738281 4.796875 -11.71875 C 4.242188 -11.695312 3.660156 -11.445312 3.046875 -10.96875 Z M 0.390625 -8.921875 "/></g></g></g><g fill="#f6e7d8" fill-opacity="1"><g transform="translate(127.869169, 107.813794)"><g><path d="M 6.8125 -22.0625 L 11.234375 -13.6875 C 12.242188 -11.769531 12.453125 -9.9375 11.859375 -8.1875 C 11.273438 -6.445312 9.972656 -5.039062 7.953125 -3.96875 C 5.921875 -2.894531 4.003906 -2.601562 2.203125 -3.09375 C 0.410156 -3.582031 -0.988281 -4.785156 -2 -6.703125 L -6.421875 -15.078125 L -2.765625 -17 L 1.65625 -8.625 C 2.164062 -7.65625 2.847656 -7.035156 3.703125 -6.765625 C 4.566406 -6.503906 5.445312 -6.609375 6.34375 -7.078125 C 7.226562 -7.546875 7.785156 -8.195312 8.015625 -9.03125 C 8.253906 -9.875 8.113281 -10.78125 7.59375 -11.75 L 3.171875 -20.125 Z M 6.8125 -22.0625 "/></g></g></g><g fill="#f6e7d8" fill-opacity="1"><g transform="translate(145.392265, 98.85189)"><g><path d="M 9.953125 -17.640625 L 4.859375 -5.078125 L 13.28125 -7.828125 L 14.3125 -4.6875 L 0.625 -0.203125 L -0.203125 -2.734375 L 4.875 -15.328125 L -3.15625 -12.703125 L -4.171875 -15.8125 L 9.125 -20.15625 Z M 9.953125 -17.640625 "/></g></g></g><g fill="#f6e7d8" fill-opacity="1"><g transform="translate(162.373515, 93.466435)"><g><path d="M 12.625 -15.8125 L 5.609375 -4.21875 L 14.359375 -5.578125 L 14.875 -2.328125 L 0.640625 -0.109375 L 0.234375 -2.734375 L 7.28125 -14.34375 L -1.078125 -13.03125 L -1.59375 -16.265625 L 12.21875 -18.4375 Z M 12.625 -15.8125 "/></g></g></g><g fill="#f6e7d8" fill-opacity="1"><g transform="translate(179.953358, 90.825889)"><g><path d="M 10.609375 0.109375 L 6.328125 0.0625 L 0.15625 -16.328125 L 4.578125 -16.28125 L 8.625 -4.21875 L 12.9375 -16.1875 L 17.203125 -16.15625 Z M 10.609375 0.109375 "/></g></g></g><g fill="#f6e7d8" fill-opacity="1"><g transform="translate(198.978651, 91.246643)"><g><path d="M 16.5 -10.328125 L 7.984375 -11.84375 L 7.40625 -8.65625 L 15.078125 -7.28125 L 14.515625 -4.0625 L 6.84375 -5.4375 L 6.265625 -2.203125 L 15.015625 -0.640625 L 14.4375 2.578125 L 1.609375 0.28125 L 4.46875 -15.796875 L 17.0625 -13.546875 Z M 16.5 -10.328125 "/></g></g></g><g fill="#f6e7d8" fill-opacity="1"><g transform="translate(216.439484, 94.481735)"><g><path d="M 10.8125 3.84375 L 10.0625 -1.296875 L 9.96875 -1.328125 L 7 -2.390625 L 5.453125 1.9375 L 1.546875 0.546875 L 7.015625 -14.828125 L 13.890625 -12.375 C 15.921875 -11.65625 17.328125 -10.628906 18.109375 -9.296875 C 18.898438 -7.972656 18.988281 -6.460938 18.375 -4.765625 C 17.53125 -2.390625 16.019531 -1.066406 13.84375 -0.796875 L 15.25 5.421875 Z M 8.09375 -5.46875 L 11.0625 -4.40625 C 11.90625 -4.101562 12.632812 -4.082031 13.25 -4.34375 C 13.875 -4.601562 14.328125 -5.132812 14.609375 -5.9375 C 14.890625 -6.71875 14.867188 -7.398438 14.546875 -7.984375 C 14.222656 -8.566406 13.640625 -9.007812 12.796875 -9.3125 L 9.828125 -10.375 Z M 8.09375 -5.46875 "/></g></g></g><g fill="#f6e7d8" fill-opacity="1"><g transform="translate(234.19897, 101.060161)"><g><path d="M 14.90625 -10.625 C 17.050781 -9.445312 18.640625 -7.882812 19.671875 -5.9375 L 16.71875 -3.859375 C 16.21875 -4.703125 15.613281 -5.5 14.90625 -6.25 C 14.207031 -7 13.566406 -7.535156 12.984375 -7.859375 C 11.929688 -8.441406 11.210938 -8.390625 10.828125 -7.703125 C 10.585938 -7.253906 10.648438 -6.75 11.015625 -6.1875 C 11.378906 -5.625 11.878906 -5.035156 12.515625 -4.421875 C 13.148438 -3.816406 13.757812 -3.164062 14.34375 -2.46875 C 14.925781 -1.78125 15.300781 -0.984375 15.46875 -0.078125 C 15.644531 0.828125 15.46875 1.753906 14.9375 2.703125 C 14.175781 4.078125 13.046875 4.851562 11.546875 5.03125 C 10.054688 5.207031 8.476562 4.835938 6.8125 3.921875 C 5.632812 3.265625 4.578125 2.410156 3.640625 1.359375 C 2.703125 0.316406 2 -0.789062 1.53125 -1.96875 L 4.484375 -4 C 4.867188 -2.957031 5.441406 -1.96875 6.203125 -1.03125 C 6.960938 -0.09375 7.722656 0.585938 8.484375 1.015625 C 9.066406 1.335938 9.578125 1.476562 10.015625 1.4375 C 10.460938 1.40625 10.800781 1.1875 11.03125 0.78125 C 11.238281 0.382812 11.226562 -0.046875 11 -0.515625 C 10.78125 -0.984375 10.425781 -1.4375 9.9375 -1.875 C 9.445312 -2.320312 8.9375 -2.832031 8.40625 -3.40625 C 7.875 -3.988281 7.398438 -4.5625 6.984375 -5.125 C 6.578125 -5.695312 6.34375 -6.363281 6.28125 -7.125 C 6.21875 -7.882812 6.40625 -8.664062 6.84375 -9.46875 C 7.5625 -10.769531 8.65625 -11.523438 10.125 -11.734375 C 11.59375 -11.941406 13.1875 -11.570312 14.90625 -10.625 Z M 14.90625 -10.625 "/></g></g></g><g fill="#f6e7d8" fill-opacity="1"><g transform="translate(249.116318, 109.458106)"><g><path d="M 19.40625 -1.421875 L 12.59375 -6.734375 L 10.609375 -4.1875 L 16.75 0.59375 L 14.734375 3.171875 L 8.59375 -1.609375 L 6.578125 0.984375 L 13.578125 6.4375 L 11.5625 9.015625 L 1.296875 1.015625 L 11.34375 -11.859375 L 21.421875 -4 Z M 19.40625 -1.421875 "/></g></g></g><g fill="#f6e7d8" fill-opacity="1"><g transform="translate(123.575743, 286.42582)"><g><path d="M 13.53125 -4.609375 L 7.6875 -7.5 L 6.265625 -4.609375 L 11.5 -2.015625 L 10.6875 -0.390625 L 5.453125 -2.984375 L 4 -0.046875 L 10.03125 2.9375 L 9.234375 4.5625 L 1.40625 0.6875 L 6.703125 -10.015625 L 14.34375 -6.234375 Z M 13.53125 -4.609375 "/></g></g></g><g fill="#f6e7d8" fill-opacity="1"><g transform="translate(139.732501, 293.900881)"><g><path d="M 9.046875 -9.609375 C 10.523438 -9.109375 11.71875 -8.273438 12.625 -7.109375 L 11.25 -5.703125 C 10.332031 -6.796875 9.347656 -7.519531 8.296875 -7.875 C 7.734375 -8.070312 7.253906 -8.125 6.859375 -8.03125 C 6.460938 -7.9375 6.195312 -7.695312 6.0625 -7.3125 C 5.9375 -6.9375 5.976562 -6.566406 6.1875 -6.203125 C 6.394531 -5.847656 6.703125 -5.53125 7.109375 -5.25 C 7.523438 -4.96875 7.96875 -4.640625 8.4375 -4.265625 C 8.90625 -3.898438 9.328125 -3.535156 9.703125 -3.171875 C 10.078125 -2.816406 10.335938 -2.363281 10.484375 -1.8125 C 10.628906 -1.257812 10.59375 -0.671875 10.375 -0.046875 C 10.039062 0.941406 9.378906 1.597656 8.390625 1.921875 C 7.398438 2.242188 6.273438 2.191406 5.015625 1.765625 C 4.160156 1.472656 3.378906 1.03125 2.671875 0.4375 C 1.972656 -0.15625 1.421875 -0.832031 1.015625 -1.59375 L 2.390625 -2.953125 C 2.773438 -2.234375 3.257812 -1.613281 3.84375 -1.09375 C 4.4375 -0.582031 5.046875 -0.222656 5.671875 -0.015625 C 6.328125 0.210938 6.878906 0.269531 7.328125 0.15625 C 7.773438 0.0390625 8.070312 -0.226562 8.21875 -0.65625 C 8.351562 -1.050781 8.316406 -1.429688 8.109375 -1.796875 C 7.898438 -2.160156 7.585938 -2.476562 7.171875 -2.75 C 6.765625 -3.03125 6.328125 -3.347656 5.859375 -3.703125 C 5.398438 -4.054688 4.976562 -4.410156 4.59375 -4.765625 C 4.207031 -5.128906 3.9375 -5.582031 3.78125 -6.125 C 3.625 -6.664062 3.65625 -7.25 3.875 -7.875 C 4.195312 -8.832031 4.832031 -9.460938 5.78125 -9.765625 C 6.726562 -10.078125 7.816406 -10.023438 9.046875 -9.609375 Z M 9.046875 -9.609375 "/></g></g></g><g fill="#f6e7d8" fill-opacity="1"><g transform="translate(156.147933, 299.001835)"><g><path d="M 11.546875 -7.984375 L 7.828125 -8.75 L 5.8125 1.171875 L 3.84375 0.78125 L 5.859375 -9.140625 L 2.171875 -9.890625 L 2.53125 -11.671875 L 11.90625 -9.765625 Z M 11.546875 -7.984375 "/></g></g></g><g fill="#f6e7d8" fill-opacity="1"><g transform="translate(172.190644, 301.771509)"><g><path d="M 1.25 -1.65625 C 1.476562 -1.84375 1.742188 -1.921875 2.046875 -1.890625 C 2.347656 -1.859375 2.59375 -1.726562 2.78125 -1.5 C 2.96875 -1.28125 3.046875 -1.007812 3.015625 -0.6875 C 2.984375 -0.363281 2.851562 -0.101562 2.625 0.09375 C 2.394531 0.289062 2.128906 0.375 1.828125 0.34375 C 1.523438 0.3125 1.28125 0.175781 1.09375 -0.0625 C 0.914062 -0.300781 0.84375 -0.582031 0.875 -0.90625 C 0.90625 -1.226562 1.03125 -1.476562 1.25 -1.65625 Z M 1.25 -1.65625 "/></g></g></g><g fill="#f6e7d8" fill-opacity="1"><g transform="translate(182.158731, 302.542028)"><g/></g></g><g fill="#f6e7d8" fill-opacity="1"><g transform="translate(192.999631, 302.597056)"><g><path d="M 3.921875 -12.375 C 5.054688 -12.46875 5.992188 -12.269531 6.734375 -11.78125 C 7.484375 -11.289062 7.894531 -10.59375 7.96875 -9.6875 C 8.050781 -8.644531 7.429688 -7.285156 6.109375 -5.609375 L 3.265625 -2.09375 L 9.078125 -2.5625 L 9.21875 -0.75 L 0.765625 -0.0625 L 0.640625 -1.53125 L 4.65625 -6.59375 C 5.53125 -7.644531 5.941406 -8.523438 5.890625 -9.234375 C 5.847656 -9.703125 5.640625 -10.0625 5.265625 -10.3125 C 4.898438 -10.5625 4.40625 -10.660156 3.78125 -10.609375 C 2.695312 -10.515625 1.65625 -9.925781 0.65625 -8.84375 L -0.265625 -10.328125 C 1.023438 -11.578125 2.421875 -12.257812 3.921875 -12.375 Z M 3.921875 -12.375 "/></g></g></g><g fill="#f6e7d8" fill-opacity="1"><g transform="translate(209.558343, 300.877576)"><g><path d="M 3.21875 -12.96875 C 4.820312 -13.3125 6.160156 -13.0625 7.234375 -12.21875 C 8.304688 -11.382812 9.046875 -10.023438 9.453125 -8.140625 C 9.867188 -6.253906 9.757812 -4.710938 9.125 -3.515625 C 8.488281 -2.316406 7.367188 -1.546875 5.765625 -1.203125 C 4.171875 -0.847656 2.835938 -1.085938 1.765625 -1.921875 C 0.691406 -2.753906 -0.046875 -4.113281 -0.453125 -6 C -0.867188 -7.882812 -0.757812 -9.425781 -0.125 -10.625 C 0.507812 -11.832031 1.625 -12.613281 3.21875 -12.96875 Z M 3.546875 -11.421875 C 1.585938 -10.992188 0.921875 -9.332031 1.546875 -6.4375 C 2.171875 -3.550781 3.460938 -2.320312 5.421875 -2.75 C 7.390625 -3.164062 8.0625 -4.816406 7.4375 -7.703125 C 6.8125 -10.597656 5.515625 -11.835938 3.546875 -11.421875 Z M 3.546875 -11.421875 "/></g></g></g><g fill="#f6e7d8" fill-opacity="1"><g transform="translate(227.429392, 296.508003)"><g><path d="M 0.546875 -12.96875 C 1.617188 -13.351562 2.578125 -13.40625 3.421875 -13.125 C 4.265625 -12.851562 4.84375 -12.289062 5.15625 -11.4375 C 5.507812 -10.457031 5.265625 -8.976562 4.421875 -7 L 2.609375 -2.859375 L 8.09375 -4.828125 L 8.703125 -3.125 L 0.71875 -0.265625 L 0.21875 -1.640625 L 2.765625 -7.578125 C 3.335938 -8.828125 3.503906 -9.785156 3.265625 -10.453125 C 3.109375 -10.890625 2.816406 -11.175781 2.390625 -11.3125 C 1.972656 -11.457031 1.472656 -11.425781 0.890625 -11.21875 C -0.128906 -10.851562 -0.988281 -10.015625 -1.6875 -8.703125 L -2.953125 -9.890625 C -2.023438 -11.429688 -0.859375 -12.457031 0.546875 -12.96875 Z M 0.546875 -12.96875 "/></g></g></g><g fill="#f6e7d8" fill-opacity="1"><g transform="translate(242.881862, 290.503225)"><g><path d="M 0.84375 -8.234375 L 1.421875 -8.453125 C 2.378906 -8.828125 3.253906 -8.898438 4.046875 -8.671875 C 4.847656 -8.441406 5.453125 -7.921875 5.859375 -7.109375 C 6.367188 -6.097656 6.425781 -5.101562 6.03125 -4.125 C 5.632812 -3.15625 4.851562 -2.375 3.6875 -1.78125 C 3.03125 -1.445312 2.328125 -1.21875 1.578125 -1.09375 C 0.828125 -0.976562 0.140625 -0.984375 -0.484375 -1.109375 L -0.46875 -2.953125 C 0.695312 -2.609375 1.789062 -2.695312 2.8125 -3.21875 C 3.507812 -3.570312 3.972656 -4.007812 4.203125 -4.53125 C 4.429688 -5.050781 4.40625 -5.59375 4.125 -6.15625 C 3.832031 -6.726562 3.414062 -7.066406 2.875 -7.171875 C 2.332031 -7.273438 1.703125 -7.144531 0.984375 -6.78125 L -0.5 -6.046875 L -1.015625 -7.09375 L 0.25 -11.46875 L -4.015625 -9.328125 L -4.8125 -10.921875 L 1.671875 -14.1875 L 2.234375 -13.0625 Z M 0.84375 -8.234375 "/></g></g></g><g clip-path="url(#6c943be56d)"><g clip-path="url(#6a825be888)"><g clip-path="url(#4d6343935b)"><path fill="#f6e7d8" d="M 84.503906 212.457031 C 84.085938 212.789062 83.554688 212.511719 83.417969 212.144531 C 82.234375 211.546875 83.996094 206.734375 84.359375 205.585938 C 85.117188 203.832031 85.84375 201.824219 87.496094 200.726562 C 89.066406 199.777344 91.242188 200.457031 91.449219 202.417969 C 91.34375 206.375 87.324219 210.015625 84.503906 212.457031 Z M 82.519531 197.527344 C 82.023438 197.726562 81.585938 197.324219 81.546875 196.929688 C 80.566406 196.117188 83.449219 192.066406 84.054688 191.105469 C 85.261719 189.574219 86.5 187.824219 88.378906 187.097656 C 90.03125 186.539062 92.121094 187.539062 91.941406 189.484375 C 91.113281 193.308594 85.8125 195.976562 82.519531 197.527344 Z M 90.566406 179.511719 C 89.5625 179.992188 82.578125 183.261719 82.746094 181.070312 C 81.882812 179.652344 87.601562 174.792969 88.921875 174.035156 C 94.417969 170.472656 97.484375 176.746094 90.566406 179.511719 Z M 83.808594 168.824219 C 83.488281 169.253906 82.914062 169.125 82.683594 168.804688 C 81.347656 168.550781 81.757812 163.136719 81.828125 161.90625 C 82.027344 160.132812 82.273438 157.726562 83.726562 156.488281 C 85.117188 155.296875 87.210938 155.625 87.824219 157.4375 C 88.554688 161.378906 85.894531 165.632812 83.808594 168.824219 Z M 76.765625 174.5 C 75.113281 175.136719 71.140625 168.777344 70.546875 167.277344 C 67.980469 161.503906 74.507812 159.378906 76.300781 166.65625 C 76.632812 167.617188 78.886719 175.253906 76.765625 174.5 Z M 69.207031 173.492188 C 70.921875 174.007812 71.949219 175.921875 72.75 177.382812 C 73.25 178.355469 76.667969 185.265625 74.480469 185.085938 C 73.035156 185.980469 68.027344 180.351562 67.222656 179.011719 C 65.410156 177.066406 65.839844 172.761719 69.207031 173.492188 Z M 67.269531 187.449219 C 69.144531 187.601562 70.652344 189.339844 71.816406 190.652344 C 72.492188 191.5 77.203125 197.09375 75.078125 197.453125 C 73.820312 198.605469 67.894531 194.507812 66.730469 193.402344 C 64.425781 191.972656 63.648438 187.449219 67.269531 187.449219 Z M 69.589844 202.46875 C 71.480469 202.484375 73.058594 204.296875 74.210938 205.582031 C 74.90625 206.425781 79.707031 212.117188 77.570312 212.484375 C 76.390625 213.671875 70.332031 209.515625 69.21875 208.433594 C 66.984375 207.015625 66.105469 202.730469 69.589844 202.46875 Z M 77.433594 190.375 C 77.144531 200.671875 79.316406 211.007812 83.574219 220.382812 C 87.855469 229.804688 94.3125 238.207031 102.5 244.558594 C 103.15625 245.066406 103.8125 243.957031 103.164062 243.453125 C 98.691406 239.984375 94.71875 235.839844 91.386719 231.261719 C 85.460938 223.105469 81.480469 213.589844 79.710938 203.667969 C 77.941406 193.707031 78.460938 183.339844 81.535156 173.6875 C 81.789062 172.894531 80.550781 172.535156 80.300781 173.324219 C 78.546875 178.832031 77.597656 184.59375 77.433594 190.375 " fill-opacity="1" fill-rule="nonzero"/></g></g></g></svg>